<svg width="31" height="31" viewBox="0 0 31 31" fill="none" xmlns="http://www.w3.org/2000/svg">
<g id="basil:diamond-solid">
<path id="Vector" d="M11.919 26.3625C11.9589 26.3981 12.0093 26.4196 12.0625 26.4238C12.1157 26.4281 12.1688 26.4148 12.2138 26.3861C12.2588 26.3574 12.2932 26.3148 12.3117 26.2647C12.3303 26.2146 12.332 26.1599 12.3165 26.1088L9.16654 15.3113C9.13797 15.213 9.08002 15.1259 9.00047 15.0615C8.92093 14.9972 8.82359 14.9587 8.72154 14.9513C8.21154 14.9138 7.70279 14.8725 7.19404 14.8263L2.98154 14.4425C2.937 14.4382 2.89213 14.446 2.85169 14.4652C2.81124 14.4843 2.77675 14.5141 2.75187 14.5513C2.72699 14.5885 2.71266 14.6317 2.7104 14.6764C2.70814 14.7211 2.71804 14.7655 2.73904 14.805C5.01779 19.0675 8.29904 23.1301 11.919 26.3625ZM15.009 28.6451C15.034 28.7325 15.109 28.7976 15.2003 28.7976C15.2444 28.7963 15.2869 28.7807 15.3213 28.7532C15.3558 28.7257 15.3805 28.6877 15.3915 28.6451L19.2465 15.4288C19.258 15.3904 19.2601 15.3499 19.2526 15.3105C19.2451 15.2712 19.2283 15.2342 19.2036 15.2027C19.1788 15.1712 19.1469 15.1462 19.1104 15.1296C19.0739 15.113 19.034 15.1055 18.994 15.1075C16.466 15.216 13.9345 15.216 11.4065 15.1075C11.3667 15.1055 11.3269 15.1131 11.2906 15.1296C11.2543 15.1461 11.2224 15.171 11.1977 15.2024C11.173 15.2337 11.1561 15.2705 11.1485 15.3097C11.1409 15.3488 11.1428 15.3893 11.154 15.4276L15.009 28.6451ZM18.084 26.1088C18.014 26.3463 18.2965 26.5275 18.4815 26.3625C22.1015 23.1288 25.3828 19.0675 27.6615 14.805C27.6825 14.7656 27.6923 14.7213 27.6901 14.6767C27.6879 14.6322 27.6737 14.589 27.649 14.5519C27.6242 14.5147 27.5899 14.485 27.5497 14.4657C27.5094 14.4465 27.4647 14.4385 27.4203 14.4425L23.2078 14.8263C22.6978 14.8725 22.189 14.9138 21.679 14.9513C21.577 14.9587 21.4796 14.9972 21.4001 15.0615C21.3206 15.1259 21.2626 15.213 21.234 15.3113L18.084 26.1088ZM27.4515 12.5575C27.4951 12.5537 27.5369 12.5385 27.5728 12.5135C27.6087 12.4884 27.6374 12.4544 27.656 12.4148C27.6746 12.3752 27.6824 12.3314 27.6788 12.2878C27.6752 12.2442 27.6602 12.2023 27.6353 12.1663L23.5878 6.29755C23.4153 6.04762 23.1847 5.84332 22.9158 5.70222C22.6469 5.56113 22.3477 5.48746 22.044 5.48755H18.9315C18.8905 5.48755 18.8501 5.49766 18.8138 5.51698C18.7776 5.53631 18.7467 5.56425 18.7239 5.59835C18.701 5.63245 18.6869 5.67166 18.6828 5.7125C18.6787 5.75335 18.6847 5.79458 18.7003 5.83255L21.5215 12.7363C21.5616 12.834 21.6316 12.9164 21.7214 12.9719C21.8112 13.0273 21.9163 13.053 22.0215 13.0451C22.359 13.0188 22.699 12.99 23.0378 12.9575L27.4515 12.5575ZM16.6565 5.79505C16.6185 5.70382 16.5542 5.62591 16.4719 5.57118C16.3896 5.51645 16.2929 5.48734 16.194 5.48755H14.2065C14.1077 5.48734 14.011 5.51645 13.9287 5.57118C13.8463 5.62591 13.7821 5.70382 13.744 5.79505L10.7965 12.8675C10.7813 12.9046 10.7751 12.9447 10.7786 12.9846C10.7821 13.0245 10.7951 13.0629 10.8165 13.0967C10.838 13.1305 10.8672 13.1587 10.9018 13.1789C10.9364 13.199 10.9753 13.2106 11.0153 13.2125C13.8028 13.3475 16.5978 13.3475 19.3865 13.2125C19.4264 13.2104 19.4652 13.1987 19.4996 13.1785C19.534 13.1582 19.5631 13.13 19.5844 13.0962C19.6057 13.0625 19.6186 13.0241 19.622 12.9843C19.6254 12.9445 19.6193 12.9045 19.604 12.8675L16.6565 5.79505ZM11.7003 5.83255C11.7159 5.79458 11.7219 5.75335 11.7178 5.7125C11.7137 5.67166 11.6996 5.63245 11.6767 5.59835C11.6538 5.56425 11.6229 5.53631 11.5867 5.51698C11.5505 5.49766 11.5101 5.48755 11.469 5.48755H8.35654C8.05286 5.48746 7.7537 5.56113 7.4848 5.70222C7.21589 5.84332 6.98527 6.04762 6.81279 6.29755L2.76529 12.1663C2.7404 12.2023 2.72539 12.2442 2.72176 12.2878C2.71813 12.3314 2.72601 12.3752 2.74461 12.4148C2.76321 12.4544 2.79188 12.4884 2.82776 12.5135C2.86363 12.5385 2.90545 12.5537 2.94904 12.5575L7.36279 12.9575C7.70154 12.99 8.04029 13.0188 8.37904 13.0451C8.48433 13.0532 8.58948 13.0276 8.67934 12.9721C8.76919 12.9166 8.83912 12.8341 8.87904 12.7363L11.7003 5.83255Z" fill="#FFC700"/>
</g>
</svg>
