<svg xmlns="http://www.w3.org/2000/svg" width="31" height="25" viewBox="0 0 31 25" fill="none">
  <g clip-path="url(#clip0_20_14)">
    <path d="M25.0637 21.4846H5.56372C5.15122 21.4846 4.81372 21.8221 4.81372 22.2346V23.7346C4.81372 24.1471 5.15122 24.4846 5.56372 24.4846H25.0637C25.4762 24.4846 25.8137 24.1471 25.8137 23.7346V22.2346C25.8137 21.8221 25.4762 21.4846 25.0637 21.4846ZM28.0637 6.48456C26.8215 6.48456 25.8137 7.49237 25.8137 8.73456C25.8137 9.06737 25.8887 9.37675 26.02 9.66268L22.6262 11.6971C21.9043 12.1283 20.9715 11.8846 20.5543 11.1533L16.734 4.46893C17.2356 4.05643 17.5637 3.43768 17.5637 2.73456C17.5637 1.49237 16.5559 0.484558 15.3137 0.484558C14.0715 0.484558 13.0637 1.49237 13.0637 2.73456C13.0637 3.43768 13.3918 4.05643 13.8934 4.46893L10.0731 11.1533C9.65591 11.8846 8.71841 12.1283 8.00122 11.6971L4.61216 9.66268C4.73872 9.38143 4.81841 9.06737 4.81841 8.73456C4.81841 7.49237 3.8106 6.48456 2.56841 6.48456C1.32622 6.48456 0.313721 7.49237 0.313721 8.73456C0.313721 9.97675 1.32153 10.9846 2.56372 10.9846C2.6856 10.9846 2.80747 10.9658 2.92466 10.9471L6.31372 19.9846H24.3137L27.7028 10.9471C27.82 10.9658 27.9418 10.9846 28.0637 10.9846C29.3059 10.9846 30.3137 9.97675 30.3137 8.73456C30.3137 7.49237 29.3059 6.48456 28.0637 6.48456Z" fill="#FFC700"/>
  </g>
  <defs>
    <clipPath id="clip0_20_14">
      <rect width="30" height="24" fill="white" transform="translate(0.313721 0.484558)"/>
    </clipPath>
  </defs>
</svg>