<svg width="243" height="47" viewBox="0 0 243 47" fill="none" xmlns="http://www.w3.org/2000/svg">
<g id="Herbalife_logo logo">
<g id="layer1">
<path id="path8142" d="M68.6997 34.4563H64.1377V23.449H54.6569V34.4563H50.095V11.5886H54.6569V20.3785H64.1377V11.5886H68.6997V34.4563Z" fill="#8945EC" fill-opacity="0.5"/>
<path id="path8144" d="M89.0908 14.661H81.4876V20.9324H88.9295V24.0029H81.4876V31.3878H90.4824V34.4563H76.9257V11.5886H89.0908V14.661Z" fill="#8945EC" fill-opacity="0.5"/>
<path id="path8146" d="M101.879 22.2395H103.724C106.862 22.2395 107.866 19.79 107.866 18.1225C107.866 15.5408 106.053 14.661 104.242 14.661H101.879V22.2395ZM97.3149 11.5886H105.178C109.516 11.5886 112.428 13.6817 112.428 17.5687C112.428 20.9668 110.746 22.9257 108.609 24.2003L114.241 34.4563H108.994L104.597 25.3119H101.879V34.4582H97.3149V11.5905V11.5886Z" fill="#8945EC" fill-opacity="0.5"/>
<path id="path8148" d="M124.504 31.6504H126.832C129.359 31.6504 131.265 30.3086 131.265 27.7595C131.265 25.082 129.292 23.9397 126.799 23.9397H124.504V31.6504ZM124.504 21.1279H125.926C128.548 21.1279 130.329 19.4296 130.329 17.306C130.329 15.282 128.84 14.3985 126.864 14.3985H124.504V21.1279ZM119.94 34.4563V11.5886H128.126C131.944 11.5886 134.632 13.3539 134.632 16.457C134.632 20.1159 131.688 21.6185 130.101 22.044V22.1099C132.918 22.2402 136.054 24.2011 136.054 27.6951C136.054 31.6511 132.785 34.4571 127.447 34.4571L119.94 34.4563Z" fill="#8945EC" fill-opacity="0.5"/>
<path id="path8150" d="M153.355 25.4097C152.383 22.4025 151.411 19.6252 150.344 16.0985H150.279C149.34 19.6252 148.273 22.4025 147.206 25.4097H153.355ZM152.738 11.5886L161.249 34.4563H156.136L154.035 28.2177H146.008L143.679 34.4563H139.732L148.954 11.5886H152.738Z" fill="#8945EC" fill-opacity="0.5"/>
<path id="path8152" d="M166.82 11.5886H171.382V31.3878H180.379V34.4563H166.82V11.5886Z" fill="#8945EC" fill-opacity="0.5"/>
<path id="path8154" d="M186.465 11.5886H191.027V34.4563H186.465V11.5886Z" fill="#8945EC" fill-opacity="0.5"/>
<path id="path8156" d="M211.388 14.661H203.817V22.1744H211.261V25.243H203.817V34.4563H199.255V11.5886H211.388L211.388 14.661Z" fill="#8945EC" fill-opacity="0.5"/>
<path id="path8158" d="M230.046 14.661H222.441V20.9324H229.883V24.0029H222.441V31.3878H231.436V34.4563H217.877V11.5886H230.046V14.661Z" fill="#8945EC" fill-opacity="0.5"/>
<path id="path8160" d="M5.71338 22.9832C11.9896 24.9746 17.9089 31.1578 19.7011 39.0601C10.8771 37.9025 5.73236 30.5828 5.71338 22.9832Z" fill="#8945EC" fill-opacity="0.5"/>
<path id="path8162" d="M37.3242 22.9832C31.048 24.9746 25.0546 31.1578 23.3365 39.0601C32.1586 37.9025 37.3034 30.5828 37.3242 22.9832Z" fill="#8945EC" fill-opacity="0.5"/>
<path id="path8164" d="M21.5387 39.0601C14.8486 28.6335 16.2933 14.3333 21.5448 6.63019C26.5548 14.3333 28.121 28.6335 21.5387 39.0601Z" fill="#8945EC" fill-opacity="0.5"/>
<path id="path8166" d="M21.5634 4.52765C11.4049 4.52765 3.16943 12.8498 3.16943 23.104C3.16943 33.3543 11.4049 41.6668 21.5634 41.6668C31.7087 41.6668 39.9441 33.3543 39.9441 23.104C39.9441 12.8498 31.7086 4.52765 21.5634 4.52765ZM21.5634 40.5283C12.0162 40.5283 4.29902 32.7218 4.29902 23.104C4.29902 13.467 12.0162 5.66614 21.5634 5.66614C31.0936 5.66614 38.8145 13.467 38.8145 23.104C38.8145 32.7218 31.0936 40.5283 21.5634 40.5283Z" fill="#8945EC" fill-opacity="0.5"/>
<path id="path8168" d="M235.409 32.0068C235.409 30.8665 236.296 29.9886 237.401 29.9886C238.488 29.9886 239.358 30.8665 239.358 32.0068C239.358 33.1972 238.488 34.0539 237.401 34.0539C236.296 34.0539 235.409 33.1972 235.409 32.0068ZM237.401 34.443C238.705 34.443 239.831 33.4348 239.831 32.0068C239.831 30.6058 238.705 29.59 237.401 29.59C236.058 29.59 234.944 30.6058 234.944 32.0068C234.944 33.4348 236.058 34.443 237.401 34.443ZM236.882 32.2215H237.374L238.116 33.4348H238.597L237.788 32.1793C238.192 32.1348 238.502 31.9168 238.502 31.4241C238.502 30.8665 238.192 30.6058 237.535 30.6058H236.47V33.4348H236.882V32.2215ZM236.882 31.8478V30.9757H237.459C237.771 30.9757 238.063 31.0447 238.063 31.3878C238.063 31.8287 237.759 31.8478 237.378 31.8478H236.882Z" fill="#8945EC" fill-opacity="0.5"/>
</g>
</g>
</svg>
