<svg width="36" height="36" viewBox="0 0 36 36" fill="none" xmlns="http://www.w3.org/2000/svg">
<g id="mingcute:right-line" clip-path="url(#clip0_7_437)">
<g id="Group">
<path id="Vector" fill-rule="evenodd" clip-rule="evenodd" d="M12.2234 19.0051C11.95 18.7317 11.7964 18.3608 11.7964 17.9741C11.7964 17.5874 11.95 17.2165 12.2234 16.9431L20.4732 8.69327C20.6077 8.55398 20.7686 8.44288 20.9465 8.36645C21.1245 8.29002 21.3158 8.24979 21.5095 8.24811C21.7031 8.24643 21.8951 8.28333 22.0744 8.35665C22.2536 8.42998 22.4164 8.53827 22.5533 8.67519C22.6903 8.81212 22.7985 8.97494 22.8719 9.15417C22.9452 9.33339 22.9821 9.52542 22.9804 9.71906C22.9787 9.9127 22.9385 10.1041 22.8621 10.282C22.7856 10.4599 22.6745 10.6208 22.5353 10.7554L15.3165 17.9741L22.5353 25.1929C22.8009 25.4679 22.9479 25.8363 22.9446 26.2186C22.9413 26.601 22.7879 26.9668 22.5175 27.2372C22.2471 27.5076 21.8813 27.6609 21.499 27.6643C21.1166 27.6676 20.7482 27.5206 20.4732 27.2549L12.2234 19.0051Z" fill="#D99BFF" fill-opacity="0.58"/>
</g>
</g>
<defs>
<clipPath id="clip0_7_437">
<rect width="35" height="35" fill="white" transform="matrix(-1 0 0 -1 35.1294 35.4741)"/>
</clipPath>
</defs>
</svg>
