<svg width="31" height="31" viewBox="0 0 31 31" fill="none" xmlns="http://www.w3.org/2000/svg">
<g id="solar:chef-hat-bold-duotone">
<g id="Group">
<path id="Vector" d="M23.9862 22.5618H6.48999C6.50249 24.3081 6.59249 26.2018 7.21999 26.8293C7.95249 27.5618 9.13124 27.5618 11.4875 27.5618H18.9875C21.345 27.5618 22.5237 27.5618 23.2562 26.8293C23.8837 26.2018 23.9725 24.3081 23.9862 22.5618Z" fill="#FFC700"/>
<path id="Vector_2" opacity="0.5" d="M8.98749 6.31184C7.55088 6.3109 6.15781 6.8049 5.04273 7.7107C3.92766 8.61649 3.15868 9.87877 2.8652 11.2851C2.57173 12.6914 2.7717 14.1559 3.43143 15.432C4.09117 16.7082 5.17041 17.7181 6.48749 18.2918V22.5618H23.9875V18.2918C25.3766 17.6856 26.4982 16.5954 27.1435 15.224C27.7888 13.8527 27.914 12.2935 27.4956 10.8368C27.0772 9.38004 26.1438 8.12491 24.8692 7.30495C23.5945 6.48499 22.0653 6.15605 20.5662 6.37934C20.1882 5.26598 19.471 4.29899 18.5153 3.61415C17.5595 2.92931 16.4133 2.56104 15.2375 2.56104C14.0617 2.56104 12.9155 2.92931 11.9597 3.61415C11.004 4.29899 10.2867 5.26598 9.90874 6.37934C9.60372 6.33433 9.29581 6.31177 8.98749 6.31184Z" fill="#FFBE41"/>
</g>
</g>
</svg>
