<svg width="27" height="31" viewBox="0 0 27 31" fill="none" xmlns="http://www.w3.org/2000/svg">
<path id="Vector" d="M26.2151 4.66204C26.1272 4.56988 26.0215 4.49653 25.9044 4.44647C25.7873 4.3964 25.6613 4.37065 25.5339 4.37079H25.5264C25.2126 4.43454 24.9339 4.54579 24.6826 4.69954L24.6939 4.69329C24.2714 4.90704 23.8214 5.14579 23.3489 5.41079C22.8345 5.69373 22.2946 5.92768 21.7364 6.10954L21.6676 6.12954C21.0908 6.33369 20.4845 6.44261 19.8726 6.45204H19.8676L19.8051 6.45329C19.3389 6.45329 18.8976 6.34579 18.5051 6.15329L18.5226 6.16079C17.5012 5.66067 16.4471 5.2301 15.3676 4.87204L15.1751 4.81579C14.2094 4.51842 13.2043 4.36881 12.1939 4.37204H12.1126H12.1164C9.83007 4.47287 7.60028 5.11461 5.61014 6.24454L5.68139 6.20704C5.18139 6.45454 4.82889 6.64579 4.59889 6.78704L4.37014 5.11079C4.75914 4.77372 5.0317 4.32237 5.14893 3.82118C5.26616 3.31999 5.22206 2.79457 5.02293 2.31993C4.82379 1.8453 4.4798 1.4457 4.04006 1.17818C3.60032 0.91067 3.08731 0.788914 2.57425 0.830296C2.0612 0.871679 1.57433 1.07408 1.18315 1.40862C0.791973 1.74316 0.516476 2.19272 0.395988 2.69314C0.2755 3.19356 0.316181 3.71925 0.512224 4.19517C0.708267 4.6711 1.04965 5.07292 1.48764 5.34329L1.49764 5.34954L4.79764 29.5808C4.89639 30.287 5.49639 30.8245 6.22139 30.8258C6.29139 30.8258 6.36139 30.8208 6.42889 30.812L6.42139 30.8133C6.60998 30.7885 6.7918 30.7267 6.95637 30.6314C7.12095 30.536 7.26502 30.409 7.38029 30.2578C7.49556 30.1065 7.57975 29.9339 7.62799 29.7499C7.67624 29.5659 7.68759 29.3742 7.66139 29.1858L7.66264 29.1933L6.33514 19.4545C8.24135 18.3914 10.3646 17.7763 12.5439 17.6558L12.5826 17.6545H12.5939C13.3676 17.6545 14.1139 17.777 14.8114 18.0045L14.7601 17.9908C15.3901 18.1789 15.9984 18.4328 16.5751 18.7483L16.5264 18.7233C16.9939 18.987 17.5414 19.2345 18.1114 19.4345L18.1839 19.457C18.7451 19.667 19.3939 19.7895 20.0701 19.7945H20.0726C22.0892 19.6686 24.044 19.0492 25.7651 17.9908L25.7114 18.022C25.9426 17.9095 26.1401 17.7695 26.3114 17.6008C26.4488 17.4357 26.517 17.2238 26.5014 17.0095V17.012V5.34329C26.5016 5.21663 26.4763 5.09123 26.4269 4.9746C26.3774 4.85797 26.305 4.75251 26.2139 4.66454L26.2151 4.66204Z" fill="#FFC700"/>
</svg>
