<svg width="31" height="29" viewBox="0 0 31 29" fill="none" xmlns="http://www.w3.org/2000/svg">
<path id="Vector" d="M30.463 13.1462C30.463 20.395 23.7468 26.2712 15.463 26.2712C13.9774 26.2732 12.4979 26.0803 11.0624 25.6975C9.96739 26.2525 7.45301 27.3175 3.22301 28.0112C2.84801 28.0712 2.56301 27.6812 2.71114 27.3325C3.37489 25.765 3.97489 23.6762 4.15489 21.7712C1.85801 19.465 0.463013 16.4462 0.463013 13.1462C0.463013 5.89749 7.17926 0.0212402 15.463 0.0212402C23.7468 0.0212402 30.463 5.89749 30.463 13.1462ZM9.83801 13.1462C9.83801 12.649 9.64047 12.172 9.28884 11.8204C8.93721 11.4688 8.46029 11.2712 7.96301 11.2712C7.46573 11.2712 6.98882 11.4688 6.63719 11.8204C6.28556 12.172 6.08801 12.649 6.08801 13.1462C6.08801 13.6435 6.28556 14.1204 6.63719 14.4721C6.98882 14.8237 7.46573 15.0212 7.96301 15.0212C8.46029 15.0212 8.93721 14.8237 9.28884 14.4721C9.64047 14.1204 9.83801 13.6435 9.83801 13.1462ZM17.338 13.1462C17.338 12.649 17.1405 12.172 16.7888 11.8204C16.4372 11.4688 15.9603 11.2712 15.463 11.2712C14.9657 11.2712 14.4888 11.4688 14.1372 11.8204C13.7856 12.172 13.588 12.649 13.588 13.1462C13.588 13.6435 13.7856 14.1204 14.1372 14.4721C14.4888 14.8237 14.9657 15.0212 15.463 15.0212C15.9603 15.0212 16.4372 14.8237 16.7888 14.4721C17.1405 14.1204 17.338 13.6435 17.338 13.1462ZM22.963 15.0212C23.4603 15.0212 23.9372 14.8237 24.2888 14.4721C24.6405 14.1204 24.838 13.6435 24.838 13.1462C24.838 12.649 24.6405 12.172 24.2888 11.8204C23.9372 11.4688 23.4603 11.2712 22.963 11.2712C22.4657 11.2712 21.9888 11.4688 21.6372 11.8204C21.2856 12.172 21.088 12.649 21.088 13.1462C21.088 13.6435 21.2856 14.1204 21.6372 14.4721C21.9888 14.8237 22.4657 15.0212 22.963 15.0212Z" fill="#FFC700"/>
</svg>
