<svg width="23" height="24" viewBox="0 0 23 24" fill="none" xmlns="http://www.w3.org/2000/svg">
<path id="Vector" fill-rule="evenodd" clip-rule="evenodd" d="M6.97817 1.70435C7.32817 0.966846 8.08317 0.454346 8.95567 0.454346H13.9557C14.8282 0.454346 15.5819 0.966846 15.9332 1.70435C16.7869 1.71185 17.4532 1.7506 18.0482 1.9831C18.7585 2.26094 19.3762 2.73311 19.8307 3.3456C20.2894 3.9631 20.5057 4.75435 20.8007 5.8431L21.7282 9.2456L22.0782 10.2968L22.1082 10.3343C23.2344 11.7768 22.6982 13.9218 21.6257 18.2106C20.9432 20.9393 20.6032 22.3031 19.5857 23.0981C18.5682 23.8918 17.1619 23.8918 14.3494 23.8918H8.56192C5.74942 23.8918 4.34317 23.8918 3.32567 23.0981C2.30817 22.3031 1.96692 20.9393 1.28567 18.2106C0.213168 13.9218 -0.323082 11.7768 0.803168 10.3343L0.833168 10.2968L1.18317 9.2456L2.11067 5.8431C2.40692 4.75435 2.62317 3.96185 3.08067 3.34435C3.53533 2.73232 4.15304 2.26059 4.86317 1.9831C5.45817 1.7506 6.12317 1.7106 6.97817 1.70435ZM6.98067 3.58185C6.15317 3.5906 5.82067 3.62185 5.54567 3.72935C5.16313 3.87895 4.83043 4.13323 4.58567 4.4631C4.36567 4.75935 4.23567 5.1731 3.87317 6.50685L3.16067 9.1181C4.43567 8.89185 6.17817 8.89185 8.56067 8.89185H14.3494C16.7332 8.89185 18.4744 8.89185 19.7494 9.11685L19.0382 6.5056C18.6757 5.17185 18.5457 4.7581 18.3257 4.46185C18.0809 4.13198 17.7482 3.8777 17.3657 3.7281C17.0907 3.6206 16.7582 3.58935 15.9307 3.5806C15.7532 3.95415 15.4734 4.26975 15.1239 4.49077C14.7743 4.71179 14.3692 4.82919 13.9557 4.82935H8.95567C8.54222 4.8293 8.13726 4.71209 7.78771 4.4913C7.43815 4.2705 7.15833 3.95517 6.98067 3.58185Z" fill="#FFC700"/>
</svg>
