<svg width="20" height="24" viewBox="0 0 20 24" fill="none" xmlns="http://www.w3.org/2000/svg">
<path id="Vector" d="M10.4037 1.1641C10.3166 1.07679 10.2131 1.00752 10.0992 0.960261C9.98533 0.912999 9.86323 0.888672 9.73991 0.888672C9.6166 0.888672 9.4945 0.912999 9.3806 0.960261C9.2667 1.00752 9.16325 1.07679 9.07616 1.1641C6.74554 3.49097 4.16929 4.63847 1.30054 4.63847C1.0519 4.63847 0.81344 4.73724 0.637625 4.91306C0.461809 5.08888 0.363037 5.32733 0.363037 5.57597V11.2028C0.363037 17.2385 3.43991 21.341 9.44179 23.3397C9.63407 23.4039 9.842 23.4039 10.0343 23.3397C16.0343 21.341 19.113 17.2385 19.113 11.2028V5.57597C19.113 5.32733 19.0143 5.08888 18.8385 4.91306C18.6626 4.73724 18.4242 4.63847 18.1755 4.63847C15.3049 4.63847 12.7287 3.49472 10.4037 1.1641ZM15.0893 8.6641C15.265 8.8399 15.3638 9.07832 15.3638 9.32691C15.3638 9.5755 15.265 9.81392 15.0893 9.98972L9.46429 15.6147C9.3772 15.702 9.27375 15.7713 9.15985 15.8186C9.04595 15.8658 8.92385 15.8901 8.80054 15.8901C8.67722 15.8901 8.55512 15.8658 8.44122 15.8186C8.32733 15.7713 8.22387 15.702 8.13679 15.6147L5.32429 12.8022C5.14825 12.6262 5.04935 12.3874 5.04935 12.1385C5.04935 11.8895 5.14825 11.6508 5.32429 11.4747C5.50032 11.2987 5.73908 11.1998 5.98804 11.1998C6.23699 11.1998 6.47575 11.2987 6.65179 11.4747L8.80054 13.6253L13.7618 8.6641C13.8489 8.57679 13.9523 8.50752 14.0662 8.46026C14.1801 8.413 14.3022 8.38867 14.4255 8.38867C14.5489 8.38867 14.671 8.413 14.7848 8.46026C14.8987 8.50752 15.0022 8.57679 15.0893 8.6641Z" fill="white"/>
</svg>
