<svg width="24" height="27" viewBox="0 0 24 27" fill="none" xmlns="http://www.w3.org/2000/svg">
<path id="Vector" d="M4.24805 0.412231C4.49669 0.412231 4.73514 0.511003 4.91096 0.686819C5.08677 0.862634 5.18555 1.10109 5.18555 1.34973V2.28723H8.93555V1.34973C8.93555 1.10109 9.03432 0.862634 9.21013 0.686819C9.38595 0.511003 9.62441 0.412231 9.87305 0.412231C10.1217 0.412231 10.3601 0.511003 10.536 0.686819C10.7118 0.862634 10.8105 1.10109 10.8105 1.34973V2.28723H14.5605V1.34973C14.5605 1.10109 14.6593 0.862634 14.8351 0.686819C15.0109 0.511003 15.2494 0.412231 15.498 0.412231C15.7467 0.412231 15.9851 0.511003 16.161 0.686819C16.3368 0.862634 16.4355 1.10109 16.4355 1.34973V2.28723C17.1815 2.28723 17.8968 2.58355 18.4243 3.11099C18.9517 3.63844 19.248 4.35381 19.248 5.09973V9.85473C18.2744 10.0235 17.3769 10.4899 16.6793 11.1897L14.1649 13.706C14.0062 13.5949 13.8168 13.5359 13.623 13.5372H6.12305C5.87441 13.5372 5.63595 13.636 5.46013 13.8118C5.28432 13.9876 5.18555 14.2261 5.18555 14.4747C5.18555 14.7234 5.28432 14.9618 5.46013 15.1376C5.63595 15.3135 5.87441 15.4122 6.12305 15.4122H12.4587L8.6393 19.2297C8.40492 19.4641 8.1893 19.7154 7.99055 19.9797C7.96138 19.7537 7.85088 19.5461 7.67971 19.3956C7.50855 19.2451 7.28844 19.1622 7.06055 19.1622H6.12305C5.87441 19.1622 5.63595 19.261 5.46013 19.4368C5.28432 19.6126 5.18555 19.8511 5.18555 20.0997C5.18555 20.3484 5.28432 20.5868 5.46013 20.7626C5.63595 20.9385 5.87441 21.0372 6.12305 21.0372H7.06055C7.16055 21.0375 7.25994 21.0216 7.35492 20.9904C7.104 21.4764 6.91021 21.9898 6.77742 22.5204L6.2093 24.791C6.05056 25.4126 6.09659 26.0689 6.34055 26.6622H3.31055C2.56463 26.6622 1.84926 26.3659 1.32181 25.8385C0.794363 25.311 0.498047 24.5957 0.498047 23.8497V5.09973C0.498047 4.35381 0.794363 3.63844 1.32181 3.11099C1.84926 2.58355 2.56463 2.28723 3.31055 2.28723V1.34973C3.31055 1.10109 3.40932 0.862634 3.58513 0.686819C3.76095 0.511003 3.99941 0.412231 4.24805 0.412231ZM5.18555 8.84973C5.18555 9.09837 5.28432 9.33683 5.46013 9.51264C5.63595 9.68846 5.87441 9.78723 6.12305 9.78723H13.623C13.8717 9.78723 14.1101 9.68846 14.286 9.51264C14.4618 9.33683 14.5605 9.09837 14.5605 8.84973C14.5605 8.60109 14.4618 8.36263 14.286 8.18682C14.1101 8.011 13.8717 7.91223 13.623 7.91223H6.12305C5.87441 7.91223 5.63595 8.011 5.46013 8.18682C5.28432 8.36263 5.18555 8.60109 5.18555 8.84973ZM18.0068 12.5154C18.5555 11.9666 19.2998 11.6583 20.0759 11.6583C20.8519 11.6583 21.5962 11.9666 22.1449 12.5154C22.6937 13.0641 23.002 13.8084 23.002 14.5844C23.002 15.3605 22.6937 16.1047 22.1449 16.6535L14.103 24.6935C13.4359 25.3611 12.5999 25.8349 11.6843 26.0641L9.41367 26.6322C9.22198 26.6803 9.0211 26.6778 8.83063 26.6251C8.64016 26.5724 8.46659 26.4713 8.32685 26.3316C8.18711 26.1918 8.08596 26.0182 8.03327 25.8278C7.98057 25.6373 7.97813 25.4364 8.02617 25.2447L8.59617 22.976C8.82492 22.0591 9.29742 21.2229 9.96492 20.5572L18.0068 12.5154Z" fill="#FFC700"/>
</svg>
