<svg width="21" height="27" viewBox="0 0 21 27" fill="none" xmlns="http://www.w3.org/2000/svg">
<path id="Vector" d="M17.8527 9.45386H16.6027V6.95386C16.6027 3.50386 13.8027 0.703857 10.3527 0.703857C6.90266 0.703857 4.10266 3.50386 4.10266 6.95386V9.45386H2.85266C1.47766 9.45386 0.352661 10.5789 0.352661 11.9539V24.4539C0.352661 25.8289 1.47766 26.9539 2.85266 26.9539H17.8527C19.2277 26.9539 20.3527 25.8289 20.3527 24.4539V11.9539C20.3527 10.5789 19.2277 9.45386 17.8527 9.45386ZM10.3527 20.7039C8.97766 20.7039 7.85266 19.5789 7.85266 18.2039C7.85266 16.8289 8.97766 15.7039 10.3527 15.7039C11.7277 15.7039 12.8527 16.8289 12.8527 18.2039C12.8527 19.5789 11.7277 20.7039 10.3527 20.7039ZM14.2277 9.45386H6.47766V6.95386C6.47766 4.81636 8.21516 3.07886 10.3527 3.07886C12.4902 3.07886 14.2277 4.81636 14.2277 6.95386V9.45386Z" fill="#FFC700"/>
</svg>
